<mxfile host="app.diagrams.net" agent="Mozilla/5.0 (Windows NT 10.0; Win64; x64) AppleWebKit/537.36 (KHTML, like Gecko) Chrome/129.0.0.0 Safari/537.36 Edg/129.0.0.0" version="24.7.17">
  <diagram name="Page-1" id="vF1e-IQdxl3340B9SgoG">
    <mxGraphModel dx="679" dy="372" grid="1" gridSize="10" guides="1" tooltips="1" connect="1" arrows="1" fold="1" page="1" pageScale="1" pageWidth="2000" pageHeight="2000" math="0" shadow="0">
      <root>
        <mxCell id="0" />
        <mxCell id="1" parent="0" />
        <mxCell id="_K_mtuOuOyrIwBD14WvG-58" value="&lt;span style=&quot;font-size: 34px;&quot;&gt;&lt;b&gt;产品测试&lt;/b&gt;&lt;/span&gt;" style="rounded=1;whiteSpace=wrap;html=1;dashed=1;align=center;fillColor=#dae8fc;strokeColor=#6c8ebf;" parent="1" vertex="1">
          <mxGeometry x="1350" y="90" width="210" height="740" as="geometry" />
        </mxCell>
        <mxCell id="_K_mtuOuOyrIwBD14WvG-38" value="&lt;sup style=&quot;&quot;&gt;&lt;font style=&quot;font-size: 34px;&quot;&gt;&lt;b&gt;嵌软设计&lt;/b&gt;&lt;/font&gt;&lt;/sup&gt;" style="rounded=1;whiteSpace=wrap;html=1;dashed=1;align=left;fillColor=#dae8fc;strokeColor=#6c8ebf;" parent="1" vertex="1">
          <mxGeometry x="720" y="80" width="490" height="750" as="geometry" />
        </mxCell>
        <mxCell id="_K_mtuOuOyrIwBD14WvG-19" value="&lt;sup style=&quot;&quot;&gt;&lt;font style=&quot;font-size: 34px;&quot;&gt;&lt;b&gt;硬件设计&lt;/b&gt;&lt;/font&gt;&lt;/sup&gt;" style="rounded=1;whiteSpace=wrap;html=1;dashed=1;align=left;fillColor=#dae8fc;strokeColor=#6c8ebf;" parent="1" vertex="1">
          <mxGeometry x="100" y="80" width="490" height="750" as="geometry" />
        </mxCell>
        <mxCell id="_K_mtuOuOyrIwBD14WvG-11" value="&lt;font style=&quot;font-size: 24px;&quot;&gt;屏幕&lt;/font&gt;" style="rounded=0;whiteSpace=wrap;html=1;strokeWidth=3;fillColor=#ffe6cc;strokeColor=#d79b00;" parent="1" vertex="1">
          <mxGeometry x="270" y="150" width="160" height="90" as="geometry" />
        </mxCell>
        <mxCell id="_K_mtuOuOyrIwBD14WvG-20" style="edgeStyle=orthogonalEdgeStyle;rounded=0;orthogonalLoop=1;jettySize=auto;html=1;exitX=0.5;exitY=0;exitDx=0;exitDy=0;entryX=0.5;entryY=1;entryDx=0;entryDy=0;" parent="1" source="_K_mtuOuOyrIwBD14WvG-13" target="_K_mtuOuOyrIwBD14WvG-11" edge="1">
          <mxGeometry relative="1" as="geometry" />
        </mxCell>
        <mxCell id="_K_mtuOuOyrIwBD14WvG-13" value="&lt;font style=&quot;font-size: 24px;&quot;&gt;主控&lt;/font&gt;" style="rounded=0;whiteSpace=wrap;html=1;strokeWidth=3;fillColor=#ffe6cc;strokeColor=#d79b00;" parent="1" vertex="1">
          <mxGeometry x="270" y="360" width="160" height="90" as="geometry" />
        </mxCell>
        <mxCell id="_K_mtuOuOyrIwBD14WvG-14" value="&lt;font style=&quot;font-size: 24px;&quot;&gt;电源&lt;/font&gt;" style="rounded=0;whiteSpace=wrap;html=1;strokeWidth=3;fillColor=#ffe6cc;strokeColor=#d79b00;" parent="1" vertex="1">
          <mxGeometry x="275" y="620" width="160" height="90" as="geometry" />
        </mxCell>
        <mxCell id="_K_mtuOuOyrIwBD14WvG-25" style="edgeStyle=orthogonalEdgeStyle;rounded=0;orthogonalLoop=1;jettySize=auto;html=1;exitX=0.5;exitY=0;exitDx=0;exitDy=0;entryX=0.5;entryY=1;entryDx=0;entryDy=0;" parent="1" source="_K_mtuOuOyrIwBD14WvG-15" target="_K_mtuOuOyrIwBD14WvG-13" edge="1">
          <mxGeometry relative="1" as="geometry" />
        </mxCell>
        <mxCell id="_K_mtuOuOyrIwBD14WvG-15" value="&lt;font style=&quot;font-size: 24px;&quot;&gt;5G模块&lt;/font&gt;" style="rounded=0;whiteSpace=wrap;html=1;strokeWidth=3;fillColor=#ffe6cc;strokeColor=#d79b00;" parent="1" vertex="1">
          <mxGeometry x="350" y="500" width="160" height="90" as="geometry" />
        </mxCell>
        <mxCell id="_K_mtuOuOyrIwBD14WvG-24" style="edgeStyle=orthogonalEdgeStyle;rounded=0;orthogonalLoop=1;jettySize=auto;html=1;exitX=0.5;exitY=0;exitDx=0;exitDy=0;entryX=0.5;entryY=1;entryDx=0;entryDy=0;" parent="1" source="_K_mtuOuOyrIwBD14WvG-16" target="_K_mtuOuOyrIwBD14WvG-13" edge="1">
          <mxGeometry relative="1" as="geometry" />
        </mxCell>
        <mxCell id="_K_mtuOuOyrIwBD14WvG-16" value="&lt;font style=&quot;font-size: 24px;&quot;&gt;GPS&lt;/font&gt;" style="rounded=0;whiteSpace=wrap;html=1;strokeWidth=3;fillColor=#ffe6cc;strokeColor=#d79b00;" parent="1" vertex="1">
          <mxGeometry x="190" y="500" width="160" height="90" as="geometry" />
        </mxCell>
        <mxCell id="_K_mtuOuOyrIwBD14WvG-27" value="&lt;font style=&quot;font-size: 24px;&quot;&gt;5G模块&lt;/font&gt;" style="rounded=0;whiteSpace=wrap;html=1;strokeWidth=3;fillColor=#ffe6cc;strokeColor=#d79b00;" parent="1" vertex="1">
          <mxGeometry x="1000" y="670" width="100" height="50" as="geometry" />
        </mxCell>
        <mxCell id="_K_mtuOuOyrIwBD14WvG-29" value="&lt;font style=&quot;font-size: 24px;&quot;&gt;屏幕显示驱动&lt;/font&gt;" style="rounded=0;whiteSpace=wrap;html=1;strokeWidth=3;fillColor=#ffe6cc;strokeColor=#d79b00;" parent="1" vertex="1">
          <mxGeometry x="910" y="150" width="160" height="90" as="geometry" />
        </mxCell>
        <mxCell id="_K_mtuOuOyrIwBD14WvG-30" value="&lt;font style=&quot;font-size: 20px;&quot;&gt;AT指令下发&lt;/font&gt;" style="rounded=0;whiteSpace=wrap;html=1;strokeWidth=3;fillColor=#ffe6cc;strokeColor=#d79b00;" parent="1" vertex="1">
          <mxGeometry x="950" y="580" width="110" height="40" as="geometry" />
        </mxCell>
        <mxCell id="_K_mtuOuOyrIwBD14WvG-31" value="&lt;font style=&quot;font-size: 24px;&quot;&gt;主控&lt;/font&gt;" style="rounded=0;whiteSpace=wrap;html=1;strokeWidth=3;fillColor=#ffe6cc;strokeColor=#d79b00;" parent="1" vertex="1">
          <mxGeometry x="910" y="380" width="160" height="90" as="geometry" />
        </mxCell>
        <mxCell id="_K_mtuOuOyrIwBD14WvG-32" value="&lt;font style=&quot;font-size: 24px;&quot;&gt;GPS模块&lt;/font&gt;" style="rounded=0;whiteSpace=wrap;html=1;strokeWidth=3;fillColor=#ffe6cc;strokeColor=#d79b00;" parent="1" vertex="1">
          <mxGeometry x="740" y="680" width="160" height="90" as="geometry" />
        </mxCell>
        <mxCell id="_K_mtuOuOyrIwBD14WvG-52" value="" style="shape=flexArrow;endArrow=classic;html=1;rounded=0;width=10;endSize=25.211764705882352;endWidth=16.47058823529412;" parent="1" edge="1">
          <mxGeometry width="50" height="50" relative="1" as="geometry">
            <mxPoint x="600" y="454.65999999999997" as="sourcePoint" />
            <mxPoint x="700" y="454.65999999999997" as="targetPoint" />
          </mxGeometry>
        </mxCell>
        <mxCell id="_K_mtuOuOyrIwBD14WvG-54" value="&lt;font style=&quot;font-size: 24px;&quot;&gt;测试对4G，5G信号的灵敏度&lt;/font&gt;" style="rounded=0;whiteSpace=wrap;html=1;strokeWidth=3;fillColor=#ffe6cc;strokeColor=#d79b00;" parent="1" vertex="1">
          <mxGeometry x="1370.5" y="150" width="169" height="60" as="geometry" />
        </mxCell>
        <mxCell id="_K_mtuOuOyrIwBD14WvG-55" value="&lt;font style=&quot;font-size: 24px;&quot;&gt;稳定性测试&lt;/font&gt;" style="rounded=0;whiteSpace=wrap;html=1;strokeWidth=3;fillColor=#ffe6cc;strokeColor=#d79b00;" parent="1" vertex="1">
          <mxGeometry x="1370.5" y="250" width="169" height="60" as="geometry" />
        </mxCell>
        <mxCell id="_K_mtuOuOyrIwBD14WvG-56" value="&lt;font style=&quot;font-size: 24px;&quot;&gt;测试每轮数据获取所需时间&lt;/font&gt;" style="rounded=0;whiteSpace=wrap;html=1;strokeWidth=3;fillColor=#ffe6cc;strokeColor=#d79b00;" parent="1" vertex="1">
          <mxGeometry x="1370.5" y="590" width="169" height="60" as="geometry" />
        </mxCell>
        <mxCell id="_K_mtuOuOyrIwBD14WvG-57" value="&lt;font style=&quot;font-size: 24px;&quot;&gt;测试峰值功耗与待机功耗&lt;/font&gt;" style="rounded=0;whiteSpace=wrap;html=1;strokeWidth=3;fillColor=#ffe6cc;strokeColor=#d79b00;" parent="1" vertex="1">
          <mxGeometry x="1370.5" y="695" width="169" height="60" as="geometry" />
        </mxCell>
        <mxCell id="_K_mtuOuOyrIwBD14WvG-59" value="" style="shape=flexArrow;endArrow=classic;html=1;rounded=0;width=10;endSize=21.67;" parent="1" edge="1">
          <mxGeometry width="50" height="50" relative="1" as="geometry">
            <mxPoint x="1230" y="450" as="sourcePoint" />
            <mxPoint x="1330" y="450" as="targetPoint" />
          </mxGeometry>
        </mxCell>
        <mxCell id="kIPOF7yBYx_aCScnVeWq-3" value="" style="endArrow=classic;html=1;rounded=0;exitX=0.5;exitY=0;exitDx=0;exitDy=0;entryX=0.5;entryY=1;entryDx=0;entryDy=0;" edge="1" parent="1" source="_K_mtuOuOyrIwBD14WvG-31" target="_K_mtuOuOyrIwBD14WvG-29">
          <mxGeometry width="50" height="50" relative="1" as="geometry">
            <mxPoint x="1102.4" y="330" as="sourcePoint" />
            <mxPoint x="1080" y="413.15" as="targetPoint" />
          </mxGeometry>
        </mxCell>
        <mxCell id="kIPOF7yBYx_aCScnVeWq-6" value="&lt;font style=&quot;font-size: 20px;&quot;&gt;SIM卡1&lt;/font&gt;" style="rounded=0;whiteSpace=wrap;html=1;strokeWidth=3;fillColor=#ffe6cc;strokeColor=#d79b00;" vertex="1" parent="1">
          <mxGeometry x="920" y="760" width="80" height="40" as="geometry" />
        </mxCell>
        <mxCell id="kIPOF7yBYx_aCScnVeWq-9" value="&lt;font style=&quot;font-size: 20px;&quot;&gt;SIM卡2&lt;/font&gt;" style="rounded=0;whiteSpace=wrap;html=1;strokeWidth=3;fillColor=#ffe6cc;strokeColor=#d79b00;" vertex="1" parent="1">
          <mxGeometry x="1010" y="760" width="80" height="40" as="geometry" />
        </mxCell>
        <mxCell id="kIPOF7yBYx_aCScnVeWq-10" value="&lt;font style=&quot;font-size: 20px;&quot;&gt;SIM卡3&lt;/font&gt;" style="rounded=0;whiteSpace=wrap;html=1;strokeWidth=3;fillColor=#ffe6cc;strokeColor=#d79b00;" vertex="1" parent="1">
          <mxGeometry x="1100" y="760" width="80" height="40" as="geometry" />
        </mxCell>
        <mxCell id="kIPOF7yBYx_aCScnVeWq-12" value="" style="edgeStyle=elbowEdgeStyle;elbow=vertical;endArrow=classic;html=1;curved=0;rounded=0;endSize=8;startSize=8;exitX=0.529;exitY=0;exitDx=0;exitDy=0;exitPerimeter=0;entryX=0.5;entryY=1;entryDx=0;entryDy=0;" edge="1" parent="1" source="kIPOF7yBYx_aCScnVeWq-6" target="_K_mtuOuOyrIwBD14WvG-27">
          <mxGeometry width="50" height="50" relative="1" as="geometry">
            <mxPoint x="930" y="730" as="sourcePoint" />
            <mxPoint x="980" y="680" as="targetPoint" />
          </mxGeometry>
        </mxCell>
        <mxCell id="kIPOF7yBYx_aCScnVeWq-13" value="" style="edgeStyle=elbowEdgeStyle;elbow=vertical;endArrow=classic;html=1;curved=0;rounded=0;endSize=8;startSize=8;exitX=0.5;exitY=0;exitDx=0;exitDy=0;" edge="1" parent="1" source="kIPOF7yBYx_aCScnVeWq-10">
          <mxGeometry width="50" height="50" relative="1" as="geometry">
            <mxPoint x="930" y="730" as="sourcePoint" />
            <mxPoint x="1050" y="720" as="targetPoint" />
          </mxGeometry>
        </mxCell>
        <mxCell id="kIPOF7yBYx_aCScnVeWq-14" value="" style="edgeStyle=elbowEdgeStyle;elbow=vertical;endArrow=classic;html=1;curved=0;rounded=0;endSize=8;startSize=8;exitX=0.5;exitY=0;exitDx=0;exitDy=0;" edge="1" parent="1" source="kIPOF7yBYx_aCScnVeWq-9">
          <mxGeometry width="50" height="50" relative="1" as="geometry">
            <mxPoint x="940" y="730" as="sourcePoint" />
            <mxPoint x="1050" y="720" as="targetPoint" />
          </mxGeometry>
        </mxCell>
        <mxCell id="kIPOF7yBYx_aCScnVeWq-16" value="" style="edgeStyle=segmentEdgeStyle;endArrow=classic;html=1;curved=0;rounded=0;endSize=8;startSize=8;entryX=0;entryY=0.5;entryDx=0;entryDy=0;exitX=0.5;exitY=1;exitDx=0;exitDy=0;" edge="1" parent="1" source="_K_mtuOuOyrIwBD14WvG-30" target="_K_mtuOuOyrIwBD14WvG-27">
          <mxGeometry width="50" height="50" relative="1" as="geometry">
            <mxPoint x="1120" y="695" as="sourcePoint" />
            <mxPoint x="1120" y="560" as="targetPoint" />
            <Array as="points">
              <mxPoint x="1005" y="630" />
              <mxPoint x="980" y="630" />
              <mxPoint x="980" y="695" />
            </Array>
          </mxGeometry>
        </mxCell>
      </root>
    </mxGraphModel>
  </diagram>
</mxfile>
